
        <svg xmlns="http://www.w3.org/2000/svg" xmlns:xlink="http://www.w3.org/1999/xlink" version="1.1" width="3187.5" height="1448.5919890253087" viewBox="0 0 3187.5 1448.5919890253087">
			
			<g transform="scale(9.375) translate(10, 10)">
				<defs id="SvgjsDefs1621"/><g id="SvgjsG1622" featureKey="symbolFeature-0" transform="matrix(1.3756356983508997,0,0,1.3756356983508997,-18.947993220896834,-1.3756356983508997)" fill="#000"><path xmlns="http://www.w3.org/2000/svg" fill-rule="evenodd" clip-rule="evenodd" d="M42.907,29.392c0.293,0.537-0.19,0.955,0.121,1.494  c1.173-2.141,1.445-4.529,2.424-6.698c0.137,1.184-0.03,2.398,0.385,3.659c2.606-1.977,5.463-3.48,8.146-5.257  c1.09-0.721,1.699-1.899,2.287-3.038c2.071-4.013,3.613-8.264,5.537-12.344c1.039-2.204,2.15-4.36,3.839-6.208  c-0.663,1.919-1.345,3.832-1.985,5.758c-1.185,3.559-2.266,7.143-2.862,10.861c-0.407,2.539-0.13,5.014,0.46,7.479  c0.069,0.29,0.16,0.574,0.283,1.005c-1.623-0.346-3.122-0.575-4.561-1.007c-0.781-0.234-1.375-0.079-2.01,0.268  c-5.092,2.78-8.634,7.001-11.282,12.075c-2.765,5.298-3.261,10.772-1.427,16.46c0.252,0.781,0.232,1.591,0.096,2.374  c-0.211,1.214-0.67,1.402-2.723,1.266c-0.06,0.458,0.295,0.697,0.537,0.971c0.584,0.658,1.195,1.417,2.188,1.209  c0.985-0.206,1.115-1.183,1.325-1.972c0.794-2.992,0.901-6.061,0.914-9.134c0.005-1.267,0.001-2.534,0.143-3.855  c1.241,1.159,2.015,2.6,2.687,4.094c2.082,4.635,3.375,9.53,4.555,14.445c0.571,2.381,2.051,3.992,3.743,5.604  c0.146-0.468-0.266-0.613-0.401-0.885c-0.159-0.319-0.414-0.592-0.569-0.914c-0.295-0.612-0.672-1.319-0.164-1.908  c0.545-0.631,1.289-0.247,1.878,0.049c2.398,1.204,4.603,2.731,6.756,4.318c8.988,6.625,16.445,14.674,22.259,24.212  c1.508,2.474,1.314,1.845-0.828,3.065c-3.646,2.079-7.603,2.238-11.639,1.651c-3.001-0.437-5.977-1.007-8.901-1.833  c-1.052-0.297-2.019-0.644-2.833-1.432c-0.56-0.543-1.286-0.91-2.369-1.037c0.905,0.656,1.86,0.794,2.43,1.558  c-5.948,1.112-21.983-6.289-25.493-11.786c0.987-0.043,1.911-0.216,2.824-0.449c0.915-0.233,1.818-0.051,2.749,0.048  c-1.025-0.895-2.224-1.368-3.584-1.268c-6.025,0.445-12.051,0.735-18.068-0.072c-1.999-0.269-3.945-0.768-6-1.74  c4.426-1.377,8.53-2.882,12.477-4.79c1.853-0.896,3.626-1.886,4.698-3.742c0.919,0.466,1.449,1.305,2.298,1.784  c-1.18-1.856-2.99-3.247-3.931-5.318c-0.24,1.279,0.229,2.601-0.353,3.844c-2.013-2.18-2.73-11.485-1.188-19.293  C29.706,43.177,34.59,35.186,42.907,29.392z M38.793,56.162c-3.339-6.651-2.363-13.1,0.732-19.481  c-0.188,0.06-0.287,0.121-0.34,0.209c-2.416,4.049-3.813,8.397-3.214,13.132C36.256,52.265,36.676,54.624,38.793,56.162z   M68.694,93.655c4.174,3.498,13.055,4.806,16.021,2.334C79.13,96.723,73.964,95.777,68.694,93.655z M64.674,91.303  c-2.171-1.574-3.744-4.299-6.952-3.583c0.251,0.524,1.171,0.2,1.399,0.819C60.122,91.246,62.469,91.14,64.674,91.303z   M47.176,85.149c-0.761-1.949-0.269-3.726,0.887-5.644C46.296,80.997,45.978,83.325,47.176,85.149z M42.357,76.79  c-1.391,1.327-1.669,3.243-0.699,4.805C41.172,79.892,41.606,78.337,42.357,76.79z M44.095,83.269  c-0.706-1.756,0.111-3.261,0.808-4.985C43.403,79.766,43.101,81.71,44.095,83.269z"/><path xmlns="http://www.w3.org/2000/svg" fill-rule="evenodd" clip-rule="evenodd" d="M66.761,61.803c0.724,1.915,0.603,6.253-0.262,9.434  c-2.078-1.471-4.098-2.9-6.271-4.439C63.232,66.117,65.34,64.524,66.761,61.803z"/></g><g id="SvgjsG1623" featureKey="nameFeature-0" transform="matrix(0.8535277109331278,0,0,0.8535277109331278,118.2929450868759,46.669572601885505)" fill="#000"><path d="M14 28.16 c0 1.8 -0.04 5.36 -0.08 5.36 l0 5.44 c0 0.24 -0.04 0.64 0.08 0.88 c0.12 0.28 0.48 0.2 0.72 0.16 c1.16 -0.12 2.32 0.04 3.48 0 c1.28 -0.04 0.88 -2 0.84 -2.8 c-0.16 -1.76 0.04 -15.16 0.04 -19.96 c0 -2.16 -0.08 -6.6 -0.2 -6.8 c-0.2 -0.36 -0.72 -0.44 -1.12 -0.48 c-0.88 -0.16 -1.32 0.08 -2.64 0.08 s-1.4 0.4 -1.4 1.8 l0 1.2 c-0.04 0.96 0.12 7.68 0.12 8.76 c0 0.52 -0.04 0.56 -0.56 0.56 c-1.32 -0.04 -3.16 0.12 -4.52 0 c-1.96 -0.16 -1.52 0 -1.64 -1.8 l0 -0.24 c0 -2.56 0.32 -9.2 0.2 -9.6 c-0.2 -0.6 -0.44 -0.72 -0.96 -0.68 c-1.2 0.08 -2.44 -0.12 -3.64 -0.04 c-0.4 0.04 -0.52 0.16 -0.64 0.56 c-0.04 0.2 -0.08 0.4 -0.08 0.6 c0 1.24 0.08 2.92 0.12 4.16 l-0.12 23.72 c0 1.04 0.92 0.92 2.96 0.92 c1.88 0 2.36 0.44 2.36 -1.8 c0 -1.8 -0.12 -4.08 -0.08 -5.88 c0.04 -1.4 0 -2.76 0 -4.16 c0.04 -0.52 0.16 -0.68 0.64 -0.68 c1.76 -0.04 3.68 0 5.44 0 c0.56 0 0.68 0.08 0.68 0.72 z M44.2 17.36 c0.84 2.48 1.04 5.16 1.04 7.8 c0 2.2 -0.4 4.32 -0.96 6.44 c-0.72 2.52 -1.92 4.8 -4.08 6.28 c-1.6 1.16 -3.28 1.92 -5.24 2.12 c-0.28 0 -0.52 0.04 -0.8 0.04 c-0.24 0 -0.48 -0.04 -0.76 -0.04 c-1.96 -0.2 -3.64 -0.96 -5.28 -2.12 c-2.12 -1.48 -3.36 -3.76 -4.04 -6.28 c-0.6 -2.12 -0.96 -4.24 -0.96 -6.44 c0 -2.64 0.2 -5.32 1.04 -7.8 c1.48 -4.28 5.56 -7.32 10 -7.4 c4.44 0.08 8.52 3.12 10.04 7.4 z M40.32 28.08 c0.4 -2.44 0.24 -4.92 -0.24 -7.36 c-0.48 -2.2 -1.44 -4.36 -3.28 -5.68 c-0.32 -0.24 -0.68 -0.44 -1.04 -0.56 c-0.52 -0.24 -1.08 -0.32 -1.6 -0.32 s-1.04 0.08 -1.56 0.32 c-0.4 0.12 -0.72 0.32 -1.04 0.56 c-1.88 1.32 -2.84 3.48 -3.28 5.68 c-0.48 2.44 -0.64 4.92 -0.24 7.36 c0.4 2.2 1.2 5.16 3.28 6.28 c0.88 0.48 1.84 0.8 2.84 0.84 c1 -0.04 2 -0.36 2.88 -0.84 c2.08 -1.12 2.88 -4.08 3.28 -6.28 z M55.04 10.04 c-0.4 0 -0.8 0.04 -1.2 0.04 c-0.6 0 -1.32 -0.12 -1.44 0.68 c-0.4 3.4 -0.76 7.16 -1.16 10.56 c-0.68 5.6 -1.32 11.36 -1.96 16.96 c-0.08 0.76 -0.16 1.48 0.68 1.64 c1.28 0.08 2.24 0.08 3.32 0.04 c0.4 0.04 0.84 0.08 0.96 -0.4 c0.08 -0.2 0.08 -0.4 0.08 -0.6 c0.08 -0.92 1.28 -12.44 1.76 -12.44 c0.76 0 2.76 9.36 3.72 12.8 c0.12 0.48 0.36 0.68 0.84 0.64 c1 -0.08 1.96 0 2.96 0 s0.8 -0.64 1 -1.48 c0.24 -0.92 2.56 -12 3.12 -12 c0.64 0 1.96 12.84 2.08 13.12 c0.24 0.56 0.92 0.32 1.4 0.32 c0.72 0 1.4 0.08 2.32 0 c0.68 -0.08 1.36 0.16 1.4 -0.72 c0 -0.2 -0.08 -0.4 -0.12 -0.6 c-0.16 -1 -0.36 -2.2 -0.56 -3.2 c-0.28 -2.08 -0.68 -4.12 -0.96 -6.2 c-0.4 -3.28 -0.8 -6.56 -1.16 -9.84 c-0.28 -2.8 -0.68 -5.96 -0.92 -8.76 c-0.08 -0.92 -1.12 -0.6 -1.76 -0.6 l-2.76 0 c-0.44 0 -0.64 0.84 -0.72 1.28 c-0.24 1.12 -3 15.56 -3.92 15.56 s-3.88 -13.2 -4.4 -16.08 c-0.12 -0.64 -0.56 -0.84 -1.16 -0.84 z M78.96000000000001 31.8 l-0.04 0 c0 1 -0.04 2.04 0 3.08 c0.04 1.28 0.12 2.56 0.2 3.84 c0 0.44 0.12 0.56 0.52 0.64 c0.84 0.2 1.64 0.24 2.48 0.24 c2.16 -0.08 4.32 0.08 6.48 0 c0.88 -0.04 1.28 0.04 2.16 -0.12 c0.8 -0.16 1.08 -0.6 1.08 -1.8 c-0.08 -0.76 -0.04 -1.08 -0.04 -2 c0 -1.32 -0.92 -1.76 -1.72 -1.72 c-0.56 0.04 -3.24 -0.04 -4.32 -0.04 c-1.8 0.04 -1.52 0.28 -1.52 -1.6 c0 -1.52 0.04 -3.48 0.04 -5.04 c0 -0.84 0.08 -1.12 0.88 -1.12 l5 0 c0.8 0.12 1.36 -0.44 1.36 -1.28 s0.08 -0.88 0.08 -1.72 l-0.12 -1.2 c-0.08 -0.68 -0.32 -0.92 -1 -0.92 c-0.44 0 -0.88 0.04 -1.32 0.08 c-1.72 0.12 -2.52 -0.12 -4.2 0 c-0.56 0 -0.64 -0.08 -0.68 -0.6 c-0.16 -1.56 0 -3.28 0.16 -4.84 c0.04 -0.64 0.2 -0.76 0.8 -0.8 l5.64 -0.04 c0.76 -0.08 1 -0.04 0.96 -0.8 c-0.08 -1.16 0.04 -2.36 -0.08 -3.52 c-0.08 -0.64 -0.28 -0.76 -1 -0.76 c-1.2 0.04 -1.48 0.04 -2.68 0.12 c-1.2 0.04 -6 0.04 -7.16 0.04 c-1.68 0 -1.8 -0.12 -1.84 1.92 c-0.08 1.6 -0.04 3.24 -0.04 4.88 c0 2.8 -0.16 12.84 -0.08 15.08 z M97.48 9.96 c-0.04 0 -0.36 -0.04 -0.68 -0.04 c-0.56 0 -0.84 0.2 -0.92 0.72 c-0.04 0.28 -0.04 0.6 0.04 0.84 c0.32 1.24 6.52 26.88 6.84 28 c0.12 0.48 0.16 0.48 0.64 0.48 l3.24 0 l0.24 0 c0.52 0 0.56 -0.72 0.68 -1.4 c0.8 -4.12 1.8 -8.2 2.76 -12.16 c0.04 -0.24 0.12 -0.48 0.2 -0.68 c0.04 -0.08 0.12 -0.12 0.16 -0.12 c0.08 0 0.16 0.04 0.2 0.12 c0.2 0.48 2.6 11.84 3.08 13.8 c0.08 0.24 0.2 0.44 0.52 0.44 l3.2 0 c0.6 0 1 -0.32 1.12 -0.92 c0.52 -2.64 1.2 -5.6 1.84 -8.2 c0.8 -3.2 1.64 -6.36 2.48 -9.56 c0.64 -2.56 1.32 -5.36 2.12 -7.88 c0.28 -0.84 1.32 -3.36 -0.44 -3.36 c-0.88 0 -1.64 -0.08 -2.52 -0.04 c-0.28 0 -0.56 0 -0.84 0.04 c-0.44 0 -0.76 0.24 -0.92 0.64 c-0.12 0.4 -0.32 0.84 -0.44 1.24 c-0.6 2.56 -1.16 5.48 -1.88 8 c-0.52 1.88 -1.08 3.72 -1.52 5.6 c0 0.04 -0.16 0.64 -0.32 0.64 c-0.28 0 -0.36 -0.44 -0.44 -0.84 c-0.04 -0.16 -2.04 -11.64 -2.32 -13.88 c-0.08 -0.88 -0.36 -1.4 -1.28 -1.44 l-0.48 0 c-1.04 0.08 -1.6 -0.04 -2.64 0.04 c-0.84 0.04 -0.96 0.12 -1.16 0.88 c-0.04 0.16 -0.04 0.36 -0.08 0.56 c-0.32 1.76 -2.4 13.12 -2.68 14.48 c0 0.08 -0.04 0.24 -0.16 0.24 c-0.16 0 -0.2 -0.2 -0.24 -0.28 c-0.04 -0.16 -3.52 -14.84 -3.64 -15.2 c-0.16 -0.48 -0.52 -0.76 -1.08 -0.76 c-0.88 0.04 -1.56 0 -2.68 0 z M150.88 17.36 c0.84 2.48 1.04 5.16 1.04 7.8 c0 2.2 -0.4 4.32 -0.96 6.44 c-0.72 2.52 -1.92 4.8 -4.08 6.28 c-1.6 1.16 -3.28 1.92 -5.24 2.12 c-0.28 0 -0.52 0.04 -0.8 0.04 c-0.24 0 -0.48 -0.04 -0.76 -0.04 c-1.96 -0.2 -3.64 -0.96 -5.28 -2.12 c-2.12 -1.48 -3.36 -3.76 -4.04 -6.28 c-0.6 -2.12 -0.96 -4.24 -0.96 -6.44 c0 -2.64 0.2 -5.32 1.04 -7.8 c1.48 -4.28 5.56 -7.32 10 -7.4 c4.44 0.08 8.52 3.12 10.04 7.4 z M147 28.08 c0.4 -2.44 0.24 -4.92 -0.24 -7.36 c-0.48 -2.2 -1.44 -4.36 -3.28 -5.68 c-0.32 -0.24 -0.68 -0.44 -1.04 -0.56 c-0.52 -0.24 -1.08 -0.32 -1.6 -0.32 s-1.04 0.08 -1.56 0.32 c-0.4 0.12 -0.72 0.32 -1.04 0.56 c-1.88 1.32 -2.84 3.48 -3.28 5.68 c-0.48 2.44 -0.64 4.92 -0.24 7.36 c0.4 2.2 1.2 5.16 3.28 6.28 c0.88 0.48 1.84 0.8 2.84 0.84 c1 -0.04 2 -0.36 2.88 -0.84 c2.08 -1.12 2.88 -4.08 3.28 -6.28 z M160.88000000000002 37 c0 -1.04 0 -7.6 0.04 -8.12 c0.04 -0.12 0.12 -0.36 0.28 -0.36 s0.24 0.08 0.28 0.2 c1.6 3.12 3 6.24 4.44 9.28 c0.2 0.44 0.64 1.72 0.76 1.84 c0.16 0.24 0.44 0.16 0.68 0.16 l4.4 0.04 c0.52 0 0.64 -0.32 0.52 -0.76 c-0.32 -1.2 -2.6 -5.44 -3.12 -6.48 c-0.36 -0.8 -2.76 -5.44 -2.84 -5.8 c-0.08 -0.16 0.52 -0.44 0.6 -0.56 c1.92 -1.72 3.64 -3.48 4 -6.16 c0.4 -2.64 -0.2 -5.52 -1.92 -7.64 c-1.32 -1.56 -3.04 -2.48 -5.08 -2.6 c-1.24 -0.08 -2.44 0.04 -3.68 0 c-1.08 -0.04 -1.84 -0.04 -3.2 -0.04 c-0.64 0 -1.04 0.36 -1.08 1.04 l0 0.48 c-0.08 3.08 0 6.16 0.04 9.2 c0 4.64 -0.08 16.88 -0.08 18.64 c0 0.52 0.08 0.64 0.56 0.64 c0.28 0 0.6 0.04 0.88 0.04 c1.12 0 1.8 -0.04 2.96 -0.04 c0.88 0 0.56 -1.44 0.56 -3 z M160.88000000000002 21.4 l0.04 -4.04 c0.04 -0.6 -0.16 -1.8 0.4 -2.24 c0.76 -0.56 2.32 0 3 0.48 c2 1.36 1.84 4.72 0.76 6.6 c-0.52 0.88 -1.4 1.4 -2.4 1.68 c-0.6 0.16 -1.72 0.36 -1.76 -0.6 c0 -0.64 -0.04 -1.88 -0.04 -1.88 z M181.76000000000002 32.76 c0 -1.4 -0.2 -5.2 -0.16 -6 c0 -0.12 0.08 -0.28 0.12 -0.28 c0.08 0 0.24 0.08 0.28 0.12 c1.28 1.68 7.28 13.32 8 13.36 c0.2 0.04 0.4 0.04 0.6 0.04 c1.36 -0.08 2.56 0 3.92 0 c1.4 0 0.48 -1.36 0.24 -1.72 c-0.36 -0.52 -5.12 -9.04 -5.4 -9.56 c-0.8 -1.36 -1.48 -2.84 -2.28 -4.16 c-0.08 -0.16 -0.16 -0.4 -0.12 -0.56 c0.08 -0.48 0.2 -0.92 0.4 -1.36 c0.96 -1.88 1.96 -3.8 3.12 -5.6 c1.28 -2.04 2 -3.32 3.04 -5.16 c0.24 -0.44 0.4 -0.92 0.56 -1.44 c0.04 -0.2 -0.12 -0.4 -0.36 -0.4 c-0.76 -0.04 -3.52 0 -4.4 0 c-0.4 0 -0.8 0.08 -1 0.44 c-0.52 1 -5.88 10.8 -6.4 11.68 c-0.04 0.08 -0.16 0.12 -0.28 0.12 c0 0 -0.08 -0.12 -0.08 -0.2 c-0.04 -2.24 0.36 -9.56 0.28 -11.04 c-0.04 -0.88 -0.2 -0.96 -1.08 -1 c-0.96 -0.04 -2.28 -0.04 -3.24 -0.04 c-0.88 0 -0.96 0.48 -1.08 1.12 c-0.04 0.12 -0.04 3.88 -0.04 5.56 c0 2.44 -0.2 17.72 0.08 22.56 c0 0.48 0.12 0.76 0.52 0.76 c1.08 -0.08 2.68 0 3.76 0 c0.76 0 0.88 -0.08 0.88 -1.36 c0 -1.72 0.16 -3.28 0.16 -5.4 c0 -0.16 -0.04 -0.32 -0.04 -0.48 z M207.44000000000003 9.8 c-0.76 0.04 -1.52 0.16 -2.28 0.4 c-1.64 0.56 -3.12 1.68 -4.12 3.12 c-0.88 1.32 -1.24 2.88 -1.36 4.44 c-0.08 1.2 0.04 2.44 0.6 3.52 c0.6 1.16 1.64 2.16 2.52 3.12 c0.8 0.84 1.6 1.68 2.48 2.44 c0.8 0.76 1.72 1.36 2.52 2.16 c1.16 1.16 1.6 3.8 0.76 5.24 c-1 1.6 -3.36 1.84 -4.92 1.32 c-0.8 -0.28 -1.52 -0.88 -2.2 -1.36 c-0.4 -0.28 -0.88 -0.4 -1.16 0.08 c-0.16 0.24 -0.24 0.52 -0.32 0.76 c-0.28 1 -0.64 1.92 -0.68 3 c-0.04 1.24 2.32 1.6 3.2 1.8 c3.92 0.92 8.64 0.2 10.68 -3.68 c0.4 -0.8 0.68 -1.64 0.84 -2.52 c0.04 -0.32 0.08 -0.6 0.08 -0.92 c0.16 -2.56 -0.88 -4.72 -2.44 -6.64 c-1.68 -2.08 -3.8 -3.52 -5.76 -5.32 c-1.2 -1.12 -1.64 -2.88 -1.28 -4.48 c0.36 -1.72 2.32 -2.16 3.8 -1.72 c0.44 0.12 0.8 0.32 1.2 0.56 c0.24 0.12 0.48 0.28 0.8 0.28 c0.56 0.04 0.64 -0.4 0.76 -0.84 c0.28 -1 0.76 -1.8 0.96 -2.76 c0.2 -1.08 -0.68 -1.28 -1.56 -1.56 c-1.04 -0.28 -2.04 -0.48 -3.12 -0.44 z M234.92000000000004 32.64 c0.24 -0.52 0.44 -1.04 0.64 -1.56 c0.44 -1.28 0.52 -2.6 0.64 -3.92 c0.24 -2.8 0.16 -5.64 -0.56 -8.36 c-0.88 -3.48 -3.12 -6.68 -6.48 -8.16 c-1.52 -0.68 -3.24 -0.76 -4.88 -0.72 c-1.72 0 -3.48 -0.08 -5.2 0.08 c-0.48 0.04 -0.72 0.28 -0.8 0.72 c-0.08 0.48 -0.16 0.96 -0.16 1.4 c0.08 2.44 0 9.68 0.08 10.88 c0.04 1.08 -0.08 2.4 -0.08 3.48 c0.04 2.68 0 5.4 0 8.08 c0 1.12 -0.04 2.2 -0.04 3.32 c0 1.2 -0.44 1.72 2.84 1.72 c2.92 0 5.96 -0.24 8.72 -1.28 c2.56 -0.92 4.16 -3.28 5.28 -5.68 z M223.28000000000003 28.48 l0 -4.8 c0 -3.04 0.08 -5 -0.04 -7.56 l0 -0.48 c0.04 -0.84 0.16 -0.88 1.04 -0.88 c1.16 -0.04 2 0.24 3 0.64 s1.56 1.28 2.08 2.12 c1 1.64 1.4 3.44 1.48 5.32 c0.04 1.08 0.08 2.16 0.08 3.24 c0 5.12 -3 8.68 -5.64 8.68 c-1.76 0 -2.04 0.12 -2.04 -1.04 c0 -1.2 0.08 -2.4 0.08 -3.6 c-0.04 -0.52 -0.04 -1.08 -0.04 -1.64 z"/></g>
			</g>
		</svg>
	