<?xml version="1.0" encoding="UTF-8"?>
<svg xmlns="http://www.w3.org/2000/svg" xmlns:xlink="http://www.w3.org/1999/xlink" width="234px" height="173px" viewBox="0 0 234 173" version="1.1">
<g id="surface1">
<path style=" stroke:none;fill-rule:nonzero;fill:rgb(0%,0%,0%);fill-opacity:1;" d="M 194.179688 54.671875 C 190.921875 53.382812 187.640625 52.148438 184.414062 50.792969 C 179.777344 48.84375 175.179688 46.796875 170.542969 44.84375 C 166.210938 47.773438 160.8125 48.113281 155.28125 47.988281 C 157.851562 49.570312 160.53125 50.898438 163.480469 51.871094 C 162.636719 53.097656 161.609375 53.726562 160.339844 53.929688 C 158.652344 54.195312 157.164062 53.953125 155.9375 52.527344 C 154.734375 51.128906 153.683594 49.683594 153.152344 47.917969 C 149.007812 47.757812 144.859375 47.496094 141.097656 48.007812 C 132.265625 49.613281 124.152344 53.015625 116.433594 57.5625 L 132.679688 58.746094 L 134.226562 58.777344 C 134.226562 58.777344 135.679688 56.453125 136.546875 55.285156 C 137.175781 54.433594 138.300781 52.625 138.347656 52.65625 C 138.085938 54.777344 137.820312 56.894531 137.539062 59.164062 C 138.152344 57.871094 142.226562 52.664062 142.34375 52.53125 C 141.625 56.691406 140.714844 60.785156 142.414062 64.886719 C 142.496094 60.269531 144.195312 56.296875 147.042969 52.75 C 146.644531 55.738281 145.667969 58.683594 146.695312 61.851562 C 146.960938 61.707031 147.042969 61.429688 147.21875 61.246094 C 150.039062 58.308594 153.449219 56.667969 157.363281 55.75 C 163.695312 54.261719 167.121094 54.355469 172.832031 56.117188 C 177.398438 57.527344 190.867188 56.082031 190.867188 56.082031 C 190.867188 56.082031 186.539062 62.824219 177.144531 64.695312 C 174.945312 65.070312 172.335938 65.230469 172.335938 65.230469 C 172.335938 65.230469 172.578125 63.738281 172.976562 63.023438 C 170.949219 63.132812 169.066406 63.234375 166.988281 63.347656 C 167.480469 62.636719 167.875 62.070312 168.363281 61.359375 C 166.046875 61.515625 161.699219 61.679688 161.671875 61.613281 C 162.375 60.882812 163.082031 60.148438 163.910156 59.28125 C 160.144531 59.011719 156.765625 59.539062 153.632812 61.3125 C 157.597656 60.910156 159.710938 62.351562 159.710938 62.351562 C 159.710938 62.351562 158.324219 63.144531 157.691406 63.503906 C 157.691406 63.503906 162.179688 62.957031 164.546875 65.417969 C 163.945312 65.835938 162.800781 66.621094 162.800781 66.621094 C 162.800781 66.621094 166.285156 66.652344 168.308594 68.144531 C 167.878906 69.03125 167.515625 69.769531 167.078125 70.667969 C 186.054688 68.25 194.324219 55.726562 194.953125 54.972656 C 194.65625 54.851562 194.417969 54.757812 194.179688 54.664062 Z M 194.179688 54.671875 "/>
<path style=" stroke:none;fill-rule:nonzero;fill:rgb(0%,0%,0%);fill-opacity:1;" d="M 153.152344 47.921875 C 153.117188 47.792969 153.074219 47.671875 153.039062 47.539062 C 152.988281 47.335938 152.945312 47.132812 152.917969 46.921875 C 152.902344 46.828125 152.941406 46.726562 152.976562 46.488281 C 153.734375 47.011719 154.503906 47.511719 155.277344 47.988281 C 160.8125 48.117188 166.210938 47.773438 170.539062 44.847656 C 169.203125 44.285156 167.867188 43.726562 166.519531 43.1875 C 155.929688 38.929688 144.925781 36.785156 133.476562 37.289062 C 132.59375 37.328125 132.113281 37.0625 131.617188 36.355469 C 126.140625 28.574219 119.136719 22.761719 110.027344 19.699219 C 108.617188 19.226562 107.175781 18.855469 105.535156 18.378906 C 109.515625 23.148438 113.226562 31.539062 112.714844 38.878906 C 112.65625 39.722656 112.585938 39.953125 111.824219 40.140625 C 109.699219 40.648438 107.582031 41.191406 105.492188 41.832031 C 98.953125 43.820312 92.769531 46.589844 87.011719 50.292969 C 86.664062 50.519531 86.34375 50.78125 86.007812 51.027344 C 87.355469 51.136719 88.597656 51.183594 89.621094 52.101562 L 52.21875 63.386719 C 52.21875 63.386719 82.582031 59.054688 82.523438 59.140625 C 94.746094 53 113.613281 57.367188 113.613281 57.367188 L 116.433594 57.574219 C 124.15625 53.027344 132.269531 49.625 141.101562 48.019531 C 144.863281 47.503906 149.007812 47.769531 153.15625 47.929688 Z M 97.796875 51.640625 C 105.421875 45.5625 114.339844 42.859375 123.84375 41.691406 C 123.84375 41.617188 123.839844 41.542969 123.835938 41.46875 C 123.320312 41.328125 122.8125 41.171875 122.292969 41.039062 C 121.171875 40.75 120.046875 40.46875 118.921875 40.1875 C 118.527344 40.089844 118.277344 39.921875 118.289062 39.441406 C 118.410156 34.714844 117.050781 30.390625 114.710938 26.335938 C 114.621094 26.183594 114.558594 26.011719 114.433594 25.734375 C 114.695312 25.804688 114.867188 25.820312 115.011719 25.894531 C 121.082031 28.875 125.921875 33.125 128.789062 39.378906 C 129.078125 40.003906 129.484375 40.117188 130.089844 40.121094 C 137.582031 40.183594 144.851562 41.539062 151.941406 43.933594 C 152.1875 44.015625 152.417969 44.121094 152.65625 44.296875 C 133.753906 42.183594 115.589844 45.449219 97.800781 51.640625 Z M 97.796875 51.640625 "/>
<path style=" stroke:none;fill-rule:nonzero;fill:rgb(0%,0%,0%);fill-opacity:1;" d="M 139.292969 107.597656 L 140.710938 107.597656 L 140.710938 108.613281 L 139.292969 108.613281 L 139.292969 111.554688 L 138.195312 111.554688 L 138.195312 104.429688 L 141.101562 104.429688 L 141.101562 105.449219 L 139.292969 105.449219 Z M 139.292969 107.597656 "/>
<path style=" stroke:none;fill-rule:nonzero;fill:rgb(0%,0%,0%);fill-opacity:1;" d="M 144.023438 111.554688 C 143.964844 111.371094 143.925781 111.261719 143.925781 110.683594 L 143.925781 109.5625 C 143.925781 108.898438 143.707031 108.65625 143.207031 108.65625 L 142.828125 108.65625 L 142.828125 111.554688 L 141.730469 111.554688 L 141.730469 104.429688 L 143.390625 104.429688 C 144.527344 104.429688 145.015625 104.96875 145.015625 106.070312 L 145.015625 106.628906 C 145.015625 107.359375 144.785156 107.828125 144.296875 108.0625 L 144.296875 108.085938 C 144.847656 108.320312 145.027344 108.851562 145.027344 109.59375 L 145.027344 110.691406 C 145.027344 111.039062 145.039062 111.292969 145.148438 111.558594 L 144.027344 111.558594 Z M 142.824219 105.445312 L 142.824219 107.636719 L 143.257812 107.636719 C 143.664062 107.636719 143.914062 107.453125 143.914062 106.882812 L 143.914062 106.179688 C 143.914062 105.671875 143.746094 105.445312 143.359375 105.445312 Z M 142.824219 105.445312 "/>
<path style=" stroke:none;fill-rule:nonzero;fill:rgb(0%,0%,0%);fill-opacity:1;" d="M 146.941406 107.433594 L 148.449219 107.433594 L 148.449219 108.453125 L 146.941406 108.453125 L 146.941406 110.539062 L 148.835938 110.539062 L 148.835938 111.558594 L 145.839844 111.558594 L 145.839844 104.433594 L 148.835938 104.433594 L 148.835938 105.453125 L 146.941406 105.453125 L 146.941406 107.4375 Z M 146.941406 107.433594 "/>
<path style=" stroke:none;fill-rule:nonzero;fill:rgb(0%,0%,0%);fill-opacity:1;" d="M 150.714844 107.433594 L 152.222656 107.433594 L 152.222656 108.453125 L 150.714844 108.453125 L 150.714844 110.539062 L 152.609375 110.539062 L 152.609375 111.558594 L 149.613281 111.558594 L 149.613281 104.433594 L 152.609375 104.433594 L 152.609375 105.453125 L 150.714844 105.453125 L 150.714844 107.4375 Z M 150.714844 107.433594 "/>
<path style=" stroke:none;fill-rule:nonzero;fill:rgb(0%,0%,0%);fill-opacity:1;" d="M 153.386719 104.429688 L 155.125 104.429688 C 156.222656 104.429688 156.761719 105.050781 156.761719 106.191406 L 156.761719 109.796875 C 156.761719 110.9375 156.222656 111.558594 155.125 111.558594 L 153.386719 111.558594 Z M 154.484375 105.449219 L 154.484375 110.539062 L 155.105469 110.539062 C 155.457031 110.539062 155.664062 110.355469 155.664062 109.847656 L 155.664062 106.140625 C 155.664062 105.632812 155.457031 105.449219 155.105469 105.449219 Z M 154.484375 105.449219 "/>
<path style=" stroke:none;fill-rule:nonzero;fill:rgb(0%,0%,0%);fill-opacity:1;" d="M 157.472656 106.140625 C 157.472656 105.003906 158.0625 104.351562 159.140625 104.351562 C 160.214844 104.351562 160.804688 105.003906 160.804688 106.140625 L 160.804688 109.847656 C 160.804688 110.988281 160.214844 111.640625 159.140625 111.640625 C 158.0625 111.640625 157.472656 110.988281 157.472656 109.847656 Z M 158.570312 109.917969 C 158.570312 110.429688 158.789062 110.621094 159.140625 110.621094 C 159.488281 110.621094 159.707031 110.429688 159.707031 109.917969 L 159.707031 106.070312 C 159.707031 105.5625 159.488281 105.367188 159.140625 105.367188 C 158.789062 105.367188 158.570312 105.5625 158.570312 106.070312 Z M 158.570312 109.917969 "/>
<path style=" stroke:none;fill-rule:nonzero;fill:rgb(0%,0%,0%);fill-opacity:1;" d="M 163.933594 109.488281 L 163.953125 109.488281 L 164.695312 104.429688 L 166.222656 104.429688 L 166.222656 111.554688 L 165.183594 111.554688 L 165.183594 106.445312 L 165.164062 106.445312 L 164.425781 111.554688 L 163.386719 111.554688 L 162.585938 106.515625 L 162.570312 106.515625 L 162.570312 111.554688 L 161.609375 111.554688 L 161.609375 104.429688 L 163.136719 104.429688 L 163.9375 109.488281 Z M 163.933594 109.488281 "/>
<path style=" stroke:none;fill-rule:nonzero;fill:rgb(0%,0%,0%);fill-opacity:1;" d="M 168.761719 104.429688 L 169.859375 104.429688 L 169.859375 110.539062 L 171.667969 110.539062 L 171.667969 111.558594 L 168.761719 111.558594 Z M 168.761719 104.429688 "/>
<path style=" stroke:none;fill-rule:nonzero;fill:rgb(0%,0%,0%);fill-opacity:1;" d="M 172.15625 106.140625 C 172.15625 105.003906 172.75 104.351562 173.824219 104.351562 C 174.902344 104.351562 175.492188 105.003906 175.492188 106.140625 L 175.492188 109.847656 C 175.492188 110.988281 174.902344 111.640625 173.824219 111.640625 C 172.75 111.640625 172.15625 110.988281 172.15625 109.847656 Z M 173.253906 109.917969 C 173.253906 110.429688 173.476562 110.621094 173.824219 110.621094 C 174.175781 110.621094 174.394531 110.429688 174.394531 109.917969 L 174.394531 106.070312 C 174.394531 105.5625 174.175781 105.367188 173.824219 105.367188 C 173.476562 105.367188 173.253906 105.5625 173.253906 106.070312 Z M 173.253906 109.917969 "/>
<path style=" stroke:none;fill-rule:nonzero;fill:rgb(0%,0%,0%);fill-opacity:1;" d="M 176.210938 106.140625 C 176.210938 105.003906 176.804688 104.351562 177.878906 104.351562 C 178.957031 104.351562 179.546875 105.003906 179.546875 106.140625 L 179.546875 109.847656 C 179.546875 110.988281 178.957031 111.640625 177.878906 111.640625 C 176.804688 111.640625 176.210938 110.988281 176.210938 109.847656 Z M 177.3125 109.917969 C 177.3125 110.429688 177.53125 110.621094 177.878906 110.621094 C 178.230469 110.621094 178.449219 110.429688 178.449219 109.917969 L 178.449219 106.070312 C 178.449219 105.5625 178.230469 105.367188 177.878906 105.367188 C 177.53125 105.367188 177.3125 105.5625 177.3125 106.070312 Z M 177.3125 109.917969 "/>
<path style=" stroke:none;fill-rule:nonzero;fill:rgb(0%,0%,0%);fill-opacity:1;" d="M 181.792969 108.714844 L 181.453125 109.367188 L 181.453125 111.558594 L 180.355469 111.558594 L 180.355469 104.433594 L 181.453125 104.433594 L 181.453125 107.519531 L 181.476562 107.519531 L 182.894531 104.433594 L 183.992188 104.433594 L 182.464844 107.609375 L 183.992188 111.558594 L 182.863281 111.558594 L 181.796875 108.71875 Z M 181.792969 108.714844 "/>
<path style=" stroke:none;fill-rule:nonzero;fill:rgb(0%,0%,0%);fill-opacity:1;" d="M 186.015625 104.351562 C 187.085938 104.351562 187.632812 105.003906 187.632812 106.140625 L 187.632812 106.367188 L 186.59375 106.367188 L 186.59375 106.070312 C 186.59375 105.5625 186.394531 105.367188 186.046875 105.367188 C 185.695312 105.367188 185.496094 105.5625 185.496094 106.070312 C 185.496094 106.582031 185.714844 106.980469 186.433594 107.621094 C 187.351562 108.445312 187.640625 109.035156 187.640625 109.851562 C 187.640625 110.988281 187.082031 111.640625 186.003906 111.640625 C 184.921875 111.640625 184.363281 110.988281 184.363281 109.851562 L 184.363281 109.410156 L 185.402344 109.410156 L 185.402344 109.917969 C 185.402344 110.429688 185.625 110.613281 185.972656 110.613281 C 186.324219 110.613281 186.542969 110.429688 186.542969 109.917969 C 186.542969 109.410156 186.324219 109.011719 185.605469 108.371094 C 184.6875 107.546875 184.398438 106.957031 184.398438 106.140625 C 184.398438 105.003906 184.949219 104.351562 186.015625 104.351562 Z M 186.015625 104.351562 "/>
<path style=" stroke:none;fill-rule:nonzero;fill:rgb(0%,0%,0%);fill-opacity:1;" d="M 191.664062 107.585938 L 193.203125 107.585938 L 193.203125 109.84375 C 193.203125 110.984375 192.644531 111.636719 191.566406 111.636719 C 190.488281 111.636719 189.929688 110.984375 189.929688 109.84375 L 189.929688 106.140625 C 189.929688 105 190.488281 104.347656 191.566406 104.347656 C 192.644531 104.347656 193.203125 105 193.203125 106.140625 L 193.203125 106.832031 L 192.164062 106.832031 L 192.164062 106.066406 C 192.164062 105.558594 191.945312 105.363281 191.597656 105.363281 C 191.246094 105.363281 191.027344 105.554688 191.027344 106.066406 L 191.027344 109.914062 C 191.027344 110.421875 191.246094 110.605469 191.597656 110.605469 C 191.945312 110.605469 192.164062 110.421875 192.164062 109.914062 L 192.164062 108.601562 L 191.664062 108.601562 L 191.664062 107.582031 Z M 191.664062 107.585938 "/>
<path style=" stroke:none;fill-rule:nonzero;fill:rgb(0%,0%,0%);fill-opacity:1;" d="M 193.921875 106.140625 C 193.921875 105.003906 194.511719 104.351562 195.589844 104.351562 C 196.664062 104.351562 197.257812 105.003906 197.257812 106.140625 L 197.257812 109.847656 C 197.257812 110.988281 196.664062 111.640625 195.589844 111.640625 C 194.511719 111.640625 193.921875 110.988281 193.921875 109.847656 Z M 195.019531 109.917969 C 195.019531 110.429688 195.238281 110.621094 195.589844 110.621094 C 195.9375 110.621094 196.160156 110.429688 196.160156 109.917969 L 196.160156 106.070312 C 196.160156 105.5625 195.9375 105.367188 195.589844 105.367188 C 195.238281 105.367188 195.019531 105.5625 195.019531 106.070312 Z M 195.019531 109.917969 "/>
<path style=" stroke:none;fill-rule:nonzero;fill:rgb(0%,0%,0%);fill-opacity:1;" d="M 197.972656 106.140625 C 197.972656 105.003906 198.566406 104.351562 199.640625 104.351562 C 200.71875 104.351562 201.308594 105.003906 201.308594 106.140625 L 201.308594 109.847656 C 201.308594 110.988281 200.71875 111.640625 199.640625 111.640625 C 198.566406 111.640625 197.972656 110.988281 197.972656 109.847656 Z M 199.074219 109.917969 C 199.074219 110.429688 199.292969 110.621094 199.640625 110.621094 C 199.992188 110.621094 200.210938 110.429688 200.210938 109.917969 L 200.210938 106.070312 C 200.210938 105.5625 199.992188 105.367188 199.640625 105.367188 C 199.292969 105.367188 199.074219 105.5625 199.074219 106.070312 Z M 199.074219 109.917969 "/>
<path style=" stroke:none;fill-rule:nonzero;fill:rgb(0%,0%,0%);fill-opacity:1;" d="M 202.117188 104.429688 L 203.855469 104.429688 C 204.953125 104.429688 205.492188 105.050781 205.492188 106.191406 L 205.492188 109.796875 C 205.492188 110.9375 204.953125 111.558594 203.855469 111.558594 L 202.117188 111.558594 Z M 203.214844 105.449219 L 203.214844 110.539062 L 203.835938 110.539062 C 204.183594 110.539062 204.394531 110.355469 204.394531 109.847656 L 204.394531 106.140625 C 204.394531 105.632812 204.183594 105.449219 203.835938 105.449219 Z M 203.214844 105.449219 "/>
<path style=" stroke:none;fill-rule:nonzero;fill:rgb(0%,0%,0%);fill-opacity:1;" d="M 207.851562 106.140625 C 207.851562 105.003906 208.441406 104.351562 209.515625 104.351562 C 210.59375 104.351562 211.183594 105.003906 211.183594 106.140625 L 211.183594 109.847656 C 211.183594 110.988281 210.59375 111.640625 209.515625 111.640625 C 208.441406 111.640625 207.851562 110.988281 207.851562 109.847656 Z M 208.949219 109.917969 C 208.949219 110.429688 209.167969 110.621094 209.515625 110.621094 C 209.867188 110.621094 210.085938 110.429688 210.085938 109.917969 L 210.085938 106.070312 C 210.085938 105.5625 209.867188 105.367188 209.515625 105.367188 C 209.167969 105.367188 208.949219 105.5625 208.949219 106.070312 Z M 208.949219 109.917969 "/>
<path style=" stroke:none;fill-rule:nonzero;fill:rgb(0%,0%,0%);fill-opacity:1;" d="M 212.992188 106.394531 L 212.972656 106.394531 L 212.972656 111.554688 L 211.984375 111.554688 L 211.984375 104.429688 L 213.363281 104.429688 L 214.472656 108.695312 L 214.492188 108.695312 L 214.492188 104.429688 L 215.46875 104.429688 L 215.46875 111.554688 L 214.339844 111.554688 L 212.988281 106.394531 Z M 212.992188 106.394531 "/>
<path style=" stroke:none;fill-rule:nonzero;fill:rgb(0%,0%,0%);fill-opacity:1;" d="M 219.03125 109.195312 L 217.640625 104.429688 L 218.789062 104.429688 L 219.617188 107.679688 L 219.636719 107.679688 L 220.464844 104.429688 L 221.515625 104.429688 L 220.125 109.195312 L 220.125 111.554688 L 219.027344 111.554688 L 219.027344 109.195312 Z M 219.03125 109.195312 "/>
<path style=" stroke:none;fill-rule:nonzero;fill:rgb(0%,0%,0%);fill-opacity:1;" d="M 221.816406 106.140625 C 221.816406 105.003906 222.40625 104.351562 223.484375 104.351562 C 224.558594 104.351562 225.152344 105.003906 225.152344 106.140625 L 225.152344 109.847656 C 225.152344 110.988281 224.558594 111.640625 223.484375 111.640625 C 222.40625 111.640625 221.816406 110.988281 221.816406 109.847656 Z M 222.914062 109.917969 C 222.914062 110.429688 223.132812 110.621094 223.484375 110.621094 C 223.835938 110.621094 224.054688 110.429688 224.054688 109.917969 L 224.054688 106.070312 C 224.054688 105.5625 223.835938 105.367188 223.484375 105.367188 C 223.132812 105.367188 222.914062 105.5625 222.914062 106.070312 Z M 222.914062 109.917969 "/>
<path style=" stroke:none;fill-rule:nonzero;fill:rgb(0%,0%,0%);fill-opacity:1;" d="M 227.007812 104.429688 L 227.007812 109.929688 C 227.007812 110.4375 227.226562 110.621094 227.578125 110.621094 C 227.925781 110.621094 228.144531 110.4375 228.144531 109.929688 L 228.144531 104.429688 L 229.183594 104.429688 L 229.183594 109.855469 C 229.183594 110.996094 228.625 111.648438 227.546875 111.648438 C 226.46875 111.648438 225.910156 110.996094 225.910156 109.855469 L 225.910156 104.429688 Z M 227.007812 104.429688 "/>
<path style=" stroke:none;fill-rule:nonzero;fill:rgb(0%,0%,0%);fill-opacity:1;" d="M 10.039062 100.636719 L 5.117188 100.636719 L 5.117188 79.960938 L 10.039062 79.960938 L 10.039062 87.808594 L 21.148438 87.808594 L 21.148438 79.960938 L 26.070312 79.960938 L 26.070312 100.636719 L 21.148438 100.636719 L 21.148438 92.757812 L 10.039062 92.757812 Z M 10.039062 100.636719 "/>
<path style=" stroke:none;fill-rule:nonzero;fill:rgb(0%,0%,0%);fill-opacity:1;" d="M 49.9375 96.480469 C 49.503906 101.109375 39.09375 101.109375 39.09375 101.109375 C 39.09375 101.109375 28.683594 101.109375 28.253906 96.480469 L 28.253906 84.113281 C 28.683594 79.484375 39.09375 79.484375 39.09375 79.484375 C 39.09375 79.484375 49.503906 79.484375 49.9375 84.113281 Z M 45.015625 85.929688 C 44.097656 84.167969 39.09375 84.167969 39.09375 84.167969 C 39.09375 84.167969 34.089844 84.167969 33.171875 85.929688 L 33.171875 94.667969 C 34.089844 96.402344 39.09375 96.402344 39.09375 96.402344 C 39.09375 96.402344 44.097656 96.402344 45.042969 94.667969 Z M 45.015625 85.929688 "/>
<path style=" stroke:none;fill-rule:nonzero;fill:rgb(0%,0%,0%);fill-opacity:1;" d="M 155.289062 79.730469 L 155.289062 96.238281 C 155.289062 100.867188 146.800781 100.867188 146.800781 100.867188 C 143.90625 100.867188 142.015625 100.328125 140.773438 99.621094 C 139.5 100.324219 137.609375 100.867188 134.714844 100.867188 C 134.714844 100.867188 126.226562 100.867188 126.226562 96.238281 L 126.226562 79.730469 L 131.148438 79.730469 C 131.148438 79.730469 131.148438 94.425781 131.148438 94.425781 C 131.148438 96.15625 134.714844 96.15625 134.714844 96.15625 C 138.121094 96.15625 138.3125 94.589844 138.3125 94.453125 L 138.3125 79.730469 L 143.207031 79.730469 L 143.207031 94.425781 C 143.207031 96.15625 146.800781 96.15625 146.800781 96.15625 C 146.800781 96.15625 150.394531 96.15625 150.394531 94.425781 L 150.394531 79.730469 Z M 155.289062 79.730469 "/>
<path style=" stroke:none;fill-rule:nonzero;fill:rgb(0%,0%,0%);fill-opacity:1;" d="M 156.191406 77.242188 C 156.023438 77.027344 155.957031 76.742188 155.859375 76.535156 C 157.101562 75.996094 157.382812 75.554688 158.492188 74.976562 C 159.601562 74.394531 160.480469 73.519531 161.082031 72.4375 C 158.777344 72.855469 156.546875 73.382812 154.28125 73.648438 C 147.308594 74.480469 142.960938 73.21875 138.566406 72.109375 C 132.011719 70.453125 125.710938 67.875 119.035156 66.644531 C 118.496094 66.546875 113.847656 66.011719 113.382812 65.996094 C 106.480469 65.742188 100.628906 68.265625 95.519531 72.765625 C 95.441406 72.832031 95.398438 72.941406 95.25 73.164062 C 95.65625 73.003906 95.898438 72.910156 96.132812 72.804688 C 103.523438 69.511719 111.183594 68.308594 119.097656 70.347656 C 123.167969 71.394531 127.140625 72.847656 131.117188 74.234375 C 136.21875 76.011719 141.359375 77.492188 146.832031 77.378906 C 146.945312 77.378906 147.058594 77.441406 147.328125 77.519531 C 145.671875 78.808594 143.816406 78.621094 141.953125 78.945312 C 142.0625 79.148438 142.277344 79.207031 142.433594 79.335938 C 145.269531 81.691406 147.023438 84.214844 149.496094 86.925781 L 149.496094 79.296875 L 156.191406 79.296875 L 156.191406 92.898438 C 157.085938 94.191406 160.160156 100.335938 160.160156 100.335938 C 160.160156 100.335938 163.53125 86.46875 156.195312 77.246094 Z M 156.191406 77.242188 "/>
<path style=" stroke:none;fill-rule:nonzero;fill:rgb(0%,0%,0%);fill-opacity:1;" d="M 157.472656 95.976562 L 157.472656 96.480469 C 157.566406 97.5 158.144531 98.292969 158.988281 98.910156 C 158.566406 98.085938 158.015625 97.003906 157.472656 95.976562 Z M 157.472656 95.976562 "/>
<path style=" stroke:none;fill-rule:nonzero;fill:rgb(0%,0%,0%);fill-opacity:1;" d="M 168.765625 79.484375 C 168.765625 79.484375 162.636719 79.484375 159.890625 82.058594 C 162.785156 89.097656 161.714844 96.894531 161.242188 99.457031 C 164.441406 101.105469 168.765625 101.105469 168.765625 101.105469 C 168.765625 101.105469 179.175781 101.105469 179.609375 96.480469 L 179.609375 84.109375 C 179.175781 79.480469 168.765625 79.480469 168.765625 79.480469 Z M 168.765625 96.398438 C 168.765625 96.398438 163.761719 96.398438 162.84375 94.664062 L 162.84375 85.925781 C 163.761719 84.164062 168.765625 84.164062 168.765625 84.164062 C 168.765625 84.164062 173.769531 84.164062 174.6875 85.925781 L 174.714844 94.664062 C 173.769531 96.398438 168.765625 96.398438 168.765625 96.398438 Z M 168.765625 96.398438 "/>
<path style=" stroke:none;fill-rule:nonzero;fill:rgb(0%,0%,0%);fill-opacity:1;" d="M 181.789062 79.960938 L 199.6875 79.960938 C 205.066406 79.960938 205.066406 86.835938 205.066406 86.835938 C 205.066406 86.835938 205.066406 93.65625 199.605469 93.65625 L 204.984375 100.636719 L 199.007812 100.636719 L 190.246094 88.699219 L 198.925781 88.699219 C 199.789062 88.78125 199.789062 86.832031 199.789062 86.832031 C 199.789062 86.832031 199.789062 84.910156 198.925781 84.910156 L 186.703125 84.910156 L 186.703125 100.632812 L 181.785156 100.632812 L 181.785156 79.957031 Z M 181.789062 79.960938 "/>
<path style=" stroke:none;fill-rule:nonzero;fill:rgb(0%,0%,0%);fill-opacity:1;" d="M 223.101562 79.960938 L 229.183594 79.960938 L 221.15625 89.675781 L 229.132812 100.636719 L 223.128906 100.636719 L 218.15625 93.300781 L 212.125 100.636719 L 206.800781 100.636719 L 206.800781 79.960938 L 211.71875 79.960938 L 211.71875 93.789062 Z M 223.101562 79.960938 "/>
<path style=" stroke:none;fill-rule:nonzero;fill:rgb(0%,0%,0%);fill-opacity:1;" d="M 86.917969 94.980469 C 87.734375 96.214844 88.585938 97.257812 89.328125 98.070312 L 89.328125 90.15625 L 86.917969 94.984375 Z M 86.917969 94.980469 "/>
<path style=" stroke:none;fill-rule:nonzero;fill:rgb(0%,0%,0%);fill-opacity:1;" d="M 83.417969 84.554688 C 83.4375 85.214844 83.496094 85.863281 83.578125 86.496094 L 84.566406 84.515625 C 83.839844 84.546875 83.417969 84.554688 83.417969 84.554688 Z M 83.417969 84.554688 "/>
<path style=" stroke:none;fill-rule:nonzero;fill:rgb(0%,0%,0%);fill-opacity:1;" d="M 112.582031 93.992188 L 94.242188 93.992188 L 94.242188 86.5625 L 118.175781 86.5625 Z M 112.582031 93.992188 "/>
<path style=" stroke:none;fill-rule:nonzero;fill:rgb(0%,0%,0%);fill-opacity:1;" d="M 91.960938 77.515625 C 93.539062 77.589844 95.148438 77.648438 96.667969 77.695312 C 100.832031 77.820312 106.082031 77.394531 106.082031 77.394531 C 104.414062 80.488281 99.792969 83.078125 96.667969 84.003906 C 95.113281 84.464844 93.503906 84.8125 91.960938 85.078125 C 91.960938 89.019531 91.960938 92.960938 91.960938 96.902344 C 91.960938 98.082031 92.308594 98.914062 93.265625 99.699219 C 94.207031 100.472656 95.503906 101.242188 96.667969 101.609375 C 100.964844 102.972656 105.410156 103.816406 109.863281 104.464844 C 112.101562 104.792969 114.34375 105.070312 116.589844 105.339844 C 118.660156 105.589844 123.976562 106.507812 123.976562 106.507812 C 123.976562 106.507812 123.898438 98.375 124.039062 98.375 L 99.34375 98.375 L 99.34375 83.570312 L 124.039062 83.570312 L 124.039062 74.789062 L 91.960938 74.789062 Z M 91.960938 77.515625 "/>
<path style=" stroke:none;fill-rule:nonzero;fill:rgb(0%,0%,0%);fill-opacity:1;" d="M 67.828125 105.804688 L 59.3125 88.671875 L 59.3125 105.804688 L 51.933594 105.804688 L 51.933594 74.789062 L 59.921875 74.789062 L 70.871094 96.667969 L 81.78125 74.789062 L 89.769531 74.789062 L 89.769531 105.804688 L 82.429688 105.804688 L 82.429688 88.671875 L 73.871094 105.804688 Z M 67.828125 105.804688 "/>
<path style=" stroke:none;fill-rule:nonzero;fill:rgb(0%,0%,0%);fill-opacity:1;" d="M 90.570312 78.300781 L 90.570312 84.058594 C 92.71875 83.777344 94.359375 83.339844 96.667969 82.65625 C 99.796875 81.726562 102.679688 80.351562 104.277344 78.300781 C 104.277344 78.300781 100.832031 78.726562 96.667969 78.601562 C 94.433594 78.535156 92.796875 78.4375 90.570312 78.300781 Z M 90.570312 78.300781 "/>
<path style=" stroke:none;fill-rule:nonzero;fill:rgb(0%,0%,0%);fill-opacity:1;" d="M 71.039062 86.039062 C 71.734375 84.917969 72.460938 84.011719 73.148438 83.289062 C 74.929688 81.429688 76.984375 80.789062 76.988281 80.8125 C 77.023438 81.070312 77.058594 81.335938 77.074219 81.597656 C 77.089844 81.8125 77.109375 82.03125 77.125 82.246094 L 80.976562 73.988281 L 82.488281 73.988281 C 84.523438 69.394531 88.382812 64.476562 92.484375 62.691406 C 93.609375 62.199219 94.777344 61.8125 96.109375 61.308594 C 95.695312 61.308594 95.46875 61.289062 95.25 61.308594 C 89.851562 61.859375 84.457031 62.429688 79.054688 62.949219 C 78.148438 63.039062 77.839844 63.59375 77.519531 64.371094 C 77.886719 64.441406 76.507812 68.339844 76.332031 69.261719 C 76.246094 69.691406 76.03125 70.136719 75.761719 70.488281 C 74.902344 71.613281 73.917969 72.597656 73.191406 73.816406 C 71.40625 76.808594 70.089844 79.769531 69.632812 83.230469 C 69.625 83.300781 69.609375 83.367188 69.601562 83.4375 C 69.441406 84.765625 69.367188 86.101562 69.371094 87.4375 C 69.371094 87.859375 69.429688 88.859375 69.453125 89.199219 C 69.453125 89.199219 70.472656 86.945312 71.035156 86.039062 Z M 71.039062 86.039062 "/>
<path style=" stroke:none;fill-rule:nonzero;fill:rgb(0%,0%,0%);fill-opacity:1;" d="M 134.652344 114.335938 C 125.851562 109.394531 116.308594 107.011719 106.332031 106.140625 C 106.269531 106.132812 102.390625 105.707031 98.804688 104.570312 C 97.3125 104.09375 95.9375 103.503906 94.644531 102.605469 C 93.636719 101.902344 91.648438 100.265625 90.835938 99.34375 L 90.835938 105.800781 C 91.316406 106.207031 92.871094 107.414062 93.375 107.808594 C 93.792969 108.132812 93.996094 108.445312 94.03125 108.886719 C 94.039062 109.023438 94.035156 109.167969 94.011719 109.332031 C 93.167969 115.710938 92.992188 122.105469 93.742188 128.507812 C 94.269531 132.980469 95.214844 137.351562 97.101562 141.472656 C 97.230469 141.757812 97.394531 142.03125 97.625 142.457031 C 98.015625 140.898438 98.320312 139.539062 98.703125 138.203125 C 100.417969 132.261719 103.171875 126.777344 106.089844 121.355469 C 106.875 119.894531 107.96875 119.085938 109.597656 118.894531 C 113.179688 118.476562 116.746094 117.878906 120.335938 117.613281 C 127.617188 117.085938 134.8125 117.652344 141.839844 119.769531 C 142.113281 119.851562 142.390625 119.917969 142.664062 119.996094 C 140.207031 117.757812 137.503906 115.933594 134.648438 114.332031 Z M 124.402344 114.15625 C 124.15625 114.15625 123.90625 114.167969 123.660156 114.15625 C 118.222656 113.886719 112.832031 114.304688 107.445312 115.089844 C 105.199219 115.414062 103.628906 116.488281 102.546875 118.371094 C 101.902344 119.488281 101.394531 120.679688 100.839844 121.84375 C 100.714844 122.09375 100.628906 122.363281 100.398438 122.609375 C 100.375 122.394531 100.332031 122.171875 100.328125 121.957031 C 100.257812 118.84375 100.195312 115.738281 100.859375 112.664062 C 101.039062 111.839844 101.410156 111.582031 102.234375 111.511719 C 109.648438 110.902344 116.894531 111.757812 124.011719 113.882812 C 124.148438 113.925781 124.28125 113.988281 124.417969 114.039062 C 124.414062 114.082031 124.410156 114.125 124.402344 114.164062 Z M 124.402344 114.15625 "/>
<path style=" stroke:none;fill-rule:nonzero;fill:rgb(0%,0%,0%);fill-opacity:1;" d="M 81.957031 90.765625 L 81.085938 92.507812 C 81.085938 92.507812 81.097656 92.53125 81.101562 92.539062 C 81.101562 92.539062 81.101562 92.542969 81.105469 92.546875 C 81.355469 93.082031 81.640625 93.585938 81.957031 94.070312 Z M 81.957031 90.765625 "/>
</g>
</svg>
