<svg xmlns="http://www.w3.org/2000/svg" xmlns:xlink="http://www.w3.org/1999/xlink" width="68px" height="50px" viewBox="0 0 67 50" version="1.1">
<g id="surface1">
<path style=" stroke:none;fill-rule:nonzero;fill:#ffffff;fill-opacity:1;" d="M 55.597656 15.8125 C 54.664062 15.441406 53.726562 15.085938 52.800781 14.695312 C 51.472656 14.132812 50.15625 13.539062 48.832031 12.976562 C 47.589844 13.820312 46.046875 13.921875 44.460938 13.882812 C 45.195312 14.339844 45.964844 14.726562 46.808594 15.003906 C 46.566406 15.359375 46.273438 15.539062 45.910156 15.597656 C 45.425781 15.675781 45 15.605469 44.648438 15.195312 C 44.304688 14.789062 44.003906 14.375 43.851562 13.863281 C 42.664062 13.820312 41.476562 13.742188 40.398438 13.890625 C 37.871094 14.355469 35.546875 15.335938 33.335938 16.648438 L 37.988281 16.988281 L 38.433594 17 C 38.433594 17 38.847656 16.328125 39.097656 15.988281 C 39.277344 15.746094 39.597656 15.222656 39.613281 15.230469 C 39.535156 15.84375 39.460938 16.457031 39.382812 17.109375 C 39.554688 16.738281 40.722656 15.234375 40.757812 15.195312 C 40.550781 16.398438 40.289062 17.578125 40.777344 18.761719 C 40.800781 17.429688 41.285156 16.28125 42.101562 15.257812 C 41.988281 16.121094 41.707031 16.972656 42.003906 17.886719 C 42.078125 17.84375 42.101562 17.765625 42.152344 17.710938 C 42.960938 16.863281 43.9375 16.390625 45.058594 16.125 C 46.871094 15.695312 47.851562 15.722656 49.484375 16.230469 C 50.792969 16.636719 54.648438 16.222656 54.648438 16.222656 C 54.648438 16.222656 53.410156 18.167969 50.722656 18.707031 C 50.089844 18.816406 49.34375 18.859375 49.34375 18.859375 C 49.34375 18.859375 49.414062 18.429688 49.527344 18.222656 C 48.945312 18.257812 48.40625 18.285156 47.8125 18.316406 C 47.953125 18.113281 48.066406 17.949219 48.207031 17.742188 C 47.542969 17.789062 46.296875 17.835938 46.289062 17.816406 C 46.492188 17.605469 46.695312 17.394531 46.933594 17.144531 C 45.851562 17.066406 44.886719 17.21875 43.988281 17.730469 C 45.125 17.613281 45.730469 18.03125 45.730469 18.03125 C 45.730469 18.03125 45.332031 18.257812 45.152344 18.363281 C 45.152344 18.363281 46.4375 18.207031 47.113281 18.914062 C 46.941406 19.035156 46.613281 19.261719 46.613281 19.261719 C 46.613281 19.261719 47.613281 19.269531 48.191406 19.703125 C 48.066406 19.957031 47.964844 20.171875 47.839844 20.429688 C 53.273438 19.734375 55.640625 16.117188 55.820312 15.902344 C 55.734375 15.867188 55.667969 15.839844 55.597656 15.8125 Z M 55.597656 15.8125 "/>
<path style=" stroke:none;fill-rule:nonzero;fill:#ffffff;fill-opacity:1;" d="M 43.851562 13.867188 C 43.839844 13.828125 43.828125 13.792969 43.820312 13.753906 C 43.804688 13.695312 43.792969 13.636719 43.785156 13.578125 C 43.78125 13.550781 43.792969 13.519531 43.800781 13.453125 C 44.019531 13.601562 44.238281 13.746094 44.460938 13.886719 C 46.042969 13.921875 47.589844 13.820312 48.828125 12.976562 C 48.445312 12.816406 48.0625 12.65625 47.679688 12.5 C 44.644531 11.269531 41.496094 10.652344 38.21875 10.796875 C 37.964844 10.808594 37.828125 10.730469 37.6875 10.527344 C 36.117188 8.28125 34.109375 6.605469 31.503906 5.71875 C 31.101562 5.582031 30.6875 5.476562 30.21875 5.339844 C 31.355469 6.714844 32.417969 9.136719 32.273438 11.253906 C 32.257812 11.5 32.234375 11.566406 32.019531 11.617188 C 31.410156 11.765625 30.804688 11.921875 30.203125 12.109375 C 28.332031 12.683594 26.5625 13.480469 24.914062 14.550781 C 24.8125 14.613281 24.722656 14.691406 24.625 14.761719 C 25.011719 14.792969 25.367188 14.808594 25.660156 15.070312 L 14.953125 18.328125 C 14.953125 18.328125 23.644531 17.078125 23.628906 17.101562 C 27.128906 15.332031 32.53125 16.59375 32.53125 16.59375 L 33.339844 16.652344 C 35.546875 15.339844 37.871094 14.355469 40.398438 13.894531 C 41.476562 13.746094 42.664062 13.820312 43.851562 13.867188 Z M 28.003906 14.9375 C 30.183594 13.183594 32.738281 12.40625 35.460938 12.066406 C 35.460938 12.046875 35.457031 12.023438 35.457031 12.003906 C 35.308594 11.960938 35.164062 11.917969 35.015625 11.878906 C 34.695312 11.796875 34.371094 11.714844 34.050781 11.632812 C 33.9375 11.605469 33.863281 11.558594 33.871094 11.417969 C 33.902344 10.054688 33.515625 8.804688 32.84375 7.636719 C 32.820312 7.589844 32.800781 7.542969 32.765625 7.460938 C 32.839844 7.480469 32.890625 7.488281 32.929688 7.507812 C 34.667969 8.367188 36.054688 9.59375 36.875 11.398438 C 36.957031 11.582031 37.074219 11.613281 37.246094 11.613281 C 39.394531 11.632812 41.476562 12.023438 43.503906 12.714844 C 43.574219 12.738281 43.640625 12.769531 43.710938 12.820312 C 38.296875 12.207031 33.097656 13.152344 28.003906 14.9375 Z M 28.003906 14.9375 "/>
<path style=" stroke:none;fill-rule:nonzero;fill:#ffffff;fill-opacity:1;" d="M 39.882812 31.089844 L 40.289062 31.089844 L 40.289062 31.382812 L 39.882812 31.382812 L 39.882812 32.230469 L 39.570312 32.230469 L 39.570312 30.175781 L 40.398438 30.175781 L 40.398438 30.46875 L 39.882812 30.46875 Z M 39.882812 31.089844 "/>
<path style=" stroke:none;fill-rule:nonzero;fill:#ffffff;fill-opacity:1;" d="M 41.238281 32.230469 C 41.222656 32.179688 41.210938 32.148438 41.210938 31.980469 L 41.210938 31.65625 C 41.210938 31.464844 41.148438 31.394531 41.003906 31.394531 L 40.894531 31.394531 L 40.894531 32.230469 L 40.582031 32.230469 L 40.582031 30.175781 L 41.054688 30.175781 C 41.382812 30.175781 41.523438 30.332031 41.523438 30.648438 L 41.523438 30.808594 C 41.523438 31.019531 41.457031 31.15625 41.316406 31.222656 L 41.316406 31.230469 C 41.472656 31.296875 41.523438 31.449219 41.523438 31.664062 L 41.523438 31.984375 C 41.523438 32.082031 41.527344 32.15625 41.558594 32.230469 Z M 40.894531 30.46875 L 40.894531 31.101562 L 41.015625 31.101562 C 41.132812 31.101562 41.207031 31.046875 41.207031 30.882812 L 41.207031 30.679688 C 41.207031 30.535156 41.15625 30.46875 41.046875 30.46875 Z M 40.894531 30.46875 "/>
<path style=" stroke:none;fill-rule:nonzero;fill:#ffffff;fill-opacity:1;" d="M 42.070312 31.042969 L 42.503906 31.042969 L 42.503906 31.335938 L 42.070312 31.335938 L 42.070312 31.9375 L 42.617188 31.9375 L 42.617188 32.230469 L 41.757812 32.230469 L 41.757812 30.175781 L 42.617188 30.175781 L 42.617188 30.46875 L 42.070312 30.46875 Z M 42.070312 31.042969 "/>
<path style=" stroke:none;fill-rule:nonzero;fill:#ffffff;fill-opacity:1;" d="M 43.152344 31.042969 L 43.585938 31.042969 L 43.585938 31.335938 L 43.152344 31.335938 L 43.152344 31.9375 L 43.695312 31.9375 L 43.695312 32.230469 L 42.839844 32.230469 L 42.839844 30.175781 L 43.695312 30.175781 L 43.695312 30.46875 L 43.152344 30.46875 Z M 43.152344 31.042969 "/>
<path style=" stroke:none;fill-rule:nonzero;fill:#ffffff;fill-opacity:1;" d="M 43.917969 30.175781 L 44.414062 30.175781 C 44.730469 30.175781 44.882812 30.355469 44.882812 30.683594 L 44.882812 31.722656 C 44.882812 32.054688 44.730469 32.230469 44.414062 32.230469 L 43.917969 32.230469 Z M 44.234375 30.46875 L 44.234375 31.9375 L 44.410156 31.9375 C 44.511719 31.9375 44.570312 31.886719 44.570312 31.738281 L 44.570312 30.667969 C 44.570312 30.523438 44.511719 30.46875 44.410156 30.46875 Z M 44.234375 30.46875 "/>
<path style=" stroke:none;fill-rule:nonzero;fill:#ffffff;fill-opacity:1;" d="M 45.089844 30.667969 C 45.089844 30.339844 45.257812 30.152344 45.566406 30.152344 C 45.875 30.152344 46.042969 30.339844 46.042969 30.667969 L 46.042969 31.738281 C 46.042969 32.066406 45.875 32.253906 45.566406 32.253906 C 45.257812 32.253906 45.089844 32.066406 45.089844 31.738281 Z M 45.402344 31.757812 C 45.402344 31.90625 45.464844 31.960938 45.566406 31.960938 C 45.664062 31.960938 45.726562 31.90625 45.726562 31.757812 L 45.726562 30.648438 C 45.726562 30.503906 45.664062 30.445312 45.566406 30.445312 C 45.464844 30.445312 45.402344 30.5 45.402344 30.648438 Z M 45.402344 31.757812 "/>
<path style=" stroke:none;fill-rule:nonzero;fill:#ffffff;fill-opacity:1;" d="M 46.9375 31.636719 L 46.945312 31.636719 L 47.15625 30.175781 L 47.59375 30.175781 L 47.59375 32.230469 L 47.296875 32.230469 L 47.296875 30.757812 L 47.292969 30.757812 L 47.078125 32.230469 L 46.78125 32.230469 L 46.550781 30.777344 L 46.546875 30.777344 L 46.546875 32.230469 L 46.273438 32.230469 L 46.273438 30.175781 L 46.710938 30.175781 Z M 46.9375 31.636719 "/>
<path style=" stroke:none;fill-rule:nonzero;fill:#ffffff;fill-opacity:1;" d="M 48.320312 30.175781 L 48.636719 30.175781 L 48.636719 31.9375 L 49.152344 31.9375 L 49.152344 32.230469 L 48.320312 32.230469 Z M 48.320312 30.175781 "/>
<path style=" stroke:none;fill-rule:nonzero;fill:#ffffff;fill-opacity:1;" d="M 49.292969 30.667969 C 49.292969 30.339844 49.460938 30.152344 49.769531 30.152344 C 50.078125 30.152344 50.246094 30.339844 50.246094 30.667969 L 50.246094 31.738281 C 50.246094 32.066406 50.078125 32.253906 49.769531 32.253906 C 49.460938 32.253906 49.292969 32.066406 49.292969 31.738281 Z M 49.609375 31.757812 C 49.609375 31.90625 49.671875 31.960938 49.769531 31.960938 C 49.871094 31.960938 49.933594 31.90625 49.933594 31.757812 L 49.933594 30.648438 C 49.933594 30.503906 49.871094 30.445312 49.769531 30.445312 C 49.671875 30.445312 49.609375 30.5 49.609375 30.648438 Z M 49.609375 31.757812 "/>
<path style=" stroke:none;fill-rule:nonzero;fill:#ffffff;fill-opacity:1;" d="M 50.453125 30.667969 C 50.453125 30.339844 50.621094 30.152344 50.929688 30.152344 C 51.238281 30.152344 51.410156 30.339844 51.410156 30.667969 L 51.410156 31.738281 C 51.410156 32.066406 51.238281 32.253906 50.929688 32.253906 C 50.621094 32.253906 50.453125 32.066406 50.453125 31.738281 Z M 50.769531 31.757812 C 50.769531 31.90625 50.832031 31.960938 50.929688 31.960938 C 51.03125 31.960938 51.09375 31.90625 51.09375 31.757812 L 51.09375 30.648438 C 51.09375 30.503906 51.03125 30.445312 50.929688 30.445312 C 50.832031 30.445312 50.769531 30.5 50.769531 30.648438 Z M 50.769531 31.757812 "/>
<path style=" stroke:none;fill-rule:nonzero;fill:#ffffff;fill-opacity:1;" d="M 52.050781 31.414062 L 51.953125 31.601562 L 51.953125 32.230469 L 51.640625 32.230469 L 51.640625 30.175781 L 51.953125 30.175781 L 51.953125 31.066406 L 51.960938 31.066406 L 52.367188 30.175781 L 52.679688 30.175781 L 52.242188 31.09375 L 52.679688 32.230469 L 52.359375 32.230469 L 52.054688 31.414062 Z M 52.050781 31.414062 "/>
<path style=" stroke:none;fill-rule:nonzero;fill:#ffffff;fill-opacity:1;" d="M 53.261719 30.152344 C 53.566406 30.152344 53.726562 30.339844 53.726562 30.667969 L 53.726562 30.734375 L 53.425781 30.734375 L 53.425781 30.648438 C 53.425781 30.503906 53.371094 30.445312 53.269531 30.445312 C 53.167969 30.445312 53.113281 30.5 53.113281 30.648438 C 53.113281 30.796875 53.175781 30.910156 53.378906 31.097656 C 53.644531 31.332031 53.726562 31.503906 53.726562 31.738281 C 53.726562 32.066406 53.566406 32.257812 53.257812 32.257812 C 52.949219 32.257812 52.789062 32.066406 52.789062 31.738281 L 52.789062 31.613281 L 53.085938 31.613281 L 53.085938 31.757812 C 53.085938 31.90625 53.148438 31.960938 53.25 31.960938 C 53.347656 31.960938 53.410156 31.90625 53.410156 31.757812 C 53.410156 31.613281 53.347656 31.496094 53.144531 31.3125 C 52.878906 31.074219 52.796875 30.90625 52.796875 30.667969 C 52.796875 30.339844 52.953125 30.152344 53.261719 30.152344 Z M 53.261719 30.152344 "/>
<path style=" stroke:none;fill-rule:nonzero;fill:#ffffff;fill-opacity:1;" d="M 54.878906 31.085938 L 55.320312 31.085938 L 55.320312 31.738281 C 55.320312 32.066406 55.160156 32.253906 54.851562 32.253906 C 54.542969 32.253906 54.382812 32.066406 54.382812 31.738281 L 54.382812 30.667969 C 54.382812 30.339844 54.542969 30.152344 54.851562 30.152344 C 55.160156 30.152344 55.320312 30.339844 55.320312 30.667969 L 55.320312 30.867188 L 55.019531 30.867188 L 55.019531 30.648438 C 55.019531 30.5 54.957031 30.445312 54.859375 30.445312 C 54.757812 30.445312 54.695312 30.5 54.695312 30.648438 L 54.695312 31.757812 C 54.695312 31.90625 54.757812 31.957031 54.859375 31.957031 C 54.957031 31.957031 55.019531 31.90625 55.019531 31.757812 L 55.019531 31.378906 L 54.878906 31.378906 Z M 54.878906 31.085938 "/>
<path style=" stroke:none;fill-rule:nonzero;fill:#ffffff;fill-opacity:1;" d="M 55.523438 30.667969 C 55.523438 30.339844 55.695312 30.152344 56 30.152344 C 56.308594 30.152344 56.480469 30.339844 56.480469 30.667969 L 56.480469 31.738281 C 56.480469 32.066406 56.308594 32.253906 56 32.253906 C 55.695312 32.253906 55.523438 32.066406 55.523438 31.738281 Z M 55.839844 31.757812 C 55.839844 31.90625 55.902344 31.960938 56 31.960938 C 56.101562 31.960938 56.164062 31.90625 56.164062 31.757812 L 56.164062 30.648438 C 56.164062 30.503906 56.101562 30.445312 56 30.445312 C 55.902344 30.445312 55.839844 30.5 55.839844 30.648438 Z M 55.839844 31.757812 "/>
<path style=" stroke:none;fill-rule:nonzero;fill:#ffffff;fill-opacity:1;" d="M 56.683594 30.667969 C 56.683594 30.339844 56.855469 30.152344 57.164062 30.152344 C 57.46875 30.152344 57.640625 30.339844 57.640625 30.667969 L 57.640625 31.738281 C 57.640625 32.066406 57.46875 32.253906 57.164062 32.253906 C 56.855469 32.253906 56.683594 32.066406 56.683594 31.738281 Z M 57 31.757812 C 57 31.90625 57.0625 31.960938 57.164062 31.960938 C 57.261719 31.960938 57.324219 31.90625 57.324219 31.757812 L 57.324219 30.648438 C 57.324219 30.503906 57.261719 30.445312 57.164062 30.445312 C 57.0625 30.445312 57 30.5 57 30.648438 Z M 57 31.757812 "/>
<path style=" stroke:none;fill-rule:nonzero;fill:#ffffff;fill-opacity:1;" d="M 57.871094 30.175781 L 58.367188 30.175781 C 58.683594 30.175781 58.835938 30.355469 58.835938 30.683594 L 58.835938 31.722656 C 58.835938 32.054688 58.683594 32.230469 58.367188 32.230469 L 57.871094 32.230469 Z M 58.1875 30.46875 L 58.1875 31.9375 L 58.363281 31.9375 C 58.464844 31.9375 58.523438 31.886719 58.523438 31.738281 L 58.523438 30.667969 C 58.523438 30.523438 58.464844 30.46875 58.363281 30.46875 Z M 58.1875 30.46875 "/>
<path style=" stroke:none;fill-rule:nonzero;fill:#ffffff;fill-opacity:1;" d="M 59.511719 30.667969 C 59.511719 30.339844 59.679688 30.152344 59.988281 30.152344 C 60.296875 30.152344 60.46875 30.339844 60.46875 30.667969 L 60.46875 31.738281 C 60.46875 32.066406 60.296875 32.253906 59.988281 32.253906 C 59.679688 32.253906 59.511719 32.066406 59.511719 31.738281 Z M 59.828125 31.757812 C 59.828125 31.90625 59.890625 31.960938 59.988281 31.960938 C 60.089844 31.960938 60.152344 31.90625 60.152344 31.757812 L 60.152344 30.648438 C 60.152344 30.503906 60.089844 30.445312 59.988281 30.445312 C 59.890625 30.445312 59.828125 30.5 59.828125 30.648438 Z M 59.828125 31.757812 "/>
<path style=" stroke:none;fill-rule:nonzero;fill:#ffffff;fill-opacity:1;" d="M 60.984375 30.742188 L 60.980469 30.742188 L 60.980469 32.230469 L 60.695312 32.230469 L 60.695312 30.175781 L 61.089844 30.175781 L 61.410156 31.40625 L 61.414062 31.40625 L 61.414062 30.175781 L 61.695312 30.175781 L 61.695312 32.230469 L 61.371094 32.230469 Z M 60.984375 30.742188 "/>
<path style=" stroke:none;fill-rule:nonzero;fill:#ffffff;fill-opacity:1;" d="M 62.714844 31.550781 L 62.316406 30.175781 L 62.644531 30.175781 L 62.882812 31.113281 L 62.886719 31.113281 L 63.125 30.175781 L 63.425781 30.175781 L 63.027344 31.550781 L 63.027344 32.230469 L 62.714844 32.230469 Z M 62.714844 31.550781 "/>
<path style=" stroke:none;fill-rule:nonzero;fill:#ffffff;fill-opacity:1;" d="M 63.511719 30.667969 C 63.511719 30.339844 63.679688 30.152344 63.988281 30.152344 C 64.296875 30.152344 64.464844 30.339844 64.464844 30.667969 L 64.464844 31.738281 C 64.464844 32.066406 64.296875 32.253906 63.988281 32.253906 C 63.679688 32.253906 63.511719 32.066406 63.511719 31.738281 Z M 63.824219 31.757812 C 63.824219 31.90625 63.886719 31.960938 63.988281 31.960938 C 64.089844 31.960938 64.152344 31.90625 64.152344 31.757812 L 64.152344 30.648438 C 64.152344 30.503906 64.089844 30.445312 63.988281 30.445312 C 63.886719 30.445312 63.824219 30.5 63.824219 30.648438 Z M 63.824219 31.757812 "/>
<path style=" stroke:none;fill-rule:nonzero;fill:#ffffff;fill-opacity:1;" d="M 64.996094 30.175781 L 64.996094 31.761719 C 64.996094 31.910156 65.058594 31.960938 65.160156 31.960938 C 65.261719 31.960938 65.324219 31.910156 65.324219 31.761719 L 65.324219 30.175781 L 65.621094 30.175781 L 65.621094 31.742188 C 65.621094 32.070312 65.460938 32.257812 65.152344 32.257812 C 64.84375 32.257812 64.683594 32.070312 64.683594 31.742188 L 64.683594 30.175781 Z M 64.996094 30.175781 "/>
<path style=" stroke:none;fill-rule:nonzero;fill:#ffffff;fill-opacity:1;" d="M 2.875 29.082031 L 1.464844 29.082031 L 1.464844 23.113281 L 2.875 23.113281 L 2.875 25.378906 L 6.054688 25.378906 L 6.054688 23.113281 L 7.464844 23.113281 L 7.464844 29.082031 L 6.054688 29.082031 L 6.054688 26.804688 L 2.875 26.804688 Z M 2.875 29.082031 "/>
<path style=" stroke:none;fill-rule:nonzero;fill:#ffffff;fill-opacity:1;" d="M 14.296875 27.878906 C 14.175781 29.21875 11.195312 29.21875 11.195312 29.21875 C 11.195312 29.21875 8.214844 29.21875 8.089844 27.878906 L 8.089844 24.3125 C 8.214844 22.976562 11.195312 22.976562 11.195312 22.976562 C 11.195312 22.976562 14.175781 22.976562 14.296875 24.3125 Z M 12.890625 24.835938 C 12.625 24.328125 11.195312 24.328125 11.195312 24.328125 C 11.195312 24.328125 9.761719 24.328125 9.5 24.835938 L 9.5 27.355469 C 9.761719 27.859375 11.195312 27.859375 11.195312 27.859375 C 11.195312 27.859375 12.625 27.859375 12.898438 27.355469 Z M 12.890625 24.835938 "/>
<path style=" stroke:none;fill-rule:nonzero;fill:#ffffff;fill-opacity:1;" d="M 44.464844 23.046875 L 44.464844 27.8125 C 44.464844 29.148438 42.03125 29.148438 42.03125 29.148438 C 41.203125 29.148438 40.664062 28.992188 40.304688 28.785156 C 39.941406 28.988281 39.402344 29.148438 38.574219 29.148438 C 38.574219 29.148438 36.140625 29.148438 36.140625 27.8125 L 36.140625 23.046875 L 37.550781 23.046875 C 37.550781 23.046875 37.550781 27.289062 37.550781 27.289062 C 37.550781 27.789062 38.574219 27.789062 38.574219 27.789062 C 39.546875 27.789062 39.601562 27.335938 39.601562 27.292969 L 39.601562 23.046875 L 41.003906 23.046875 L 41.003906 27.289062 C 41.003906 27.789062 42.03125 27.789062 42.03125 27.789062 C 42.03125 27.789062 43.0625 27.789062 43.0625 27.289062 L 43.0625 23.046875 Z M 44.464844 23.046875 "/>
<path style=" stroke:none;fill-rule:nonzero;fill:#ffffff;fill-opacity:1;" d="M 44.722656 22.328125 C 44.671875 22.265625 44.65625 22.183594 44.628906 22.125 C 44.980469 21.96875 45.0625 21.839844 45.378906 21.675781 C 45.699219 21.503906 45.949219 21.253906 46.121094 20.941406 C 45.460938 21.0625 44.824219 21.214844 44.175781 21.292969 C 42.179688 21.53125 40.933594 21.167969 39.675781 20.847656 C 37.796875 20.367188 35.996094 19.625 34.082031 19.269531 C 33.929688 19.242188 32.597656 19.085938 32.464844 19.082031 C 30.488281 19.007812 28.8125 19.738281 27.351562 21.035156 C 27.328125 21.054688 27.316406 21.085938 27.273438 21.152344 C 27.386719 21.105469 27.457031 21.078125 27.527344 21.046875 C 29.640625 20.097656 31.835938 19.75 34.101562 20.339844 C 35.265625 20.640625 36.402344 21.058594 37.542969 21.460938 C 39.003906 21.972656 40.476562 22.398438 42.042969 22.367188 C 42.074219 22.367188 42.105469 22.386719 42.183594 22.410156 C 41.710938 22.78125 41.179688 22.726562 40.644531 22.820312 C 40.675781 22.878906 40.738281 22.894531 40.78125 22.929688 C 41.59375 23.613281 42.097656 24.339844 42.804688 25.121094 L 42.804688 22.921875 L 44.722656 22.921875 L 44.722656 26.847656 C 44.976562 27.21875 45.859375 28.992188 45.859375 28.992188 C 45.859375 28.992188 46.824219 24.992188 44.722656 22.328125 Z M 44.722656 22.328125 "/>
<path style=" stroke:none;fill-rule:nonzero;fill:#ffffff;fill-opacity:1;" d="M 45.089844 27.734375 L 45.089844 27.878906 C 45.117188 28.175781 45.28125 28.402344 45.523438 28.582031 C 45.402344 28.34375 45.242188 28.03125 45.089844 27.734375 Z M 45.089844 27.734375 "/>
<path style=" stroke:none;fill-rule:nonzero;fill:#ffffff;fill-opacity:1;" d="M 48.320312 22.976562 C 48.320312 22.976562 46.566406 22.976562 45.78125 23.71875 C 46.609375 25.75 46.304688 28 46.167969 28.738281 C 47.082031 29.214844 48.320312 29.214844 48.320312 29.214844 C 48.320312 29.214844 51.300781 29.214844 51.425781 27.878906 L 51.425781 24.308594 C 51.300781 22.972656 48.320312 22.972656 48.320312 22.972656 Z M 48.320312 27.855469 C 48.320312 27.855469 46.890625 27.855469 46.625 27.355469 L 46.625 24.832031 C 46.890625 24.328125 48.320312 24.328125 48.320312 24.328125 C 48.320312 24.328125 49.753906 24.328125 50.015625 24.832031 L 50.023438 27.355469 C 49.753906 27.855469 48.320312 27.855469 48.320312 27.855469 Z M 48.320312 27.855469 "/>
<path style=" stroke:none;fill-rule:nonzero;fill:#ffffff;fill-opacity:1;" d="M 52.050781 23.113281 L 57.175781 23.113281 C 58.714844 23.113281 58.714844 25.097656 58.714844 25.097656 C 58.714844 25.097656 58.714844 27.066406 57.152344 27.066406 L 58.691406 29.082031 L 56.980469 29.082031 L 54.472656 25.636719 L 56.957031 25.636719 C 57.207031 25.65625 57.207031 25.097656 57.207031 25.097656 C 57.207031 25.097656 57.207031 24.539062 56.957031 24.539062 L 53.457031 24.539062 L 53.457031 29.078125 L 52.050781 29.078125 Z M 52.050781 23.113281 "/>
<path style=" stroke:none;fill-rule:nonzero;fill:#ffffff;fill-opacity:1;" d="M 63.878906 23.113281 L 65.621094 23.113281 L 63.320312 25.917969 L 65.605469 29.082031 L 63.886719 29.082031 L 62.464844 26.964844 L 60.738281 29.082031 L 59.210938 29.082031 L 59.210938 23.113281 L 60.621094 23.113281 L 60.621094 27.105469 Z M 63.878906 23.113281 "/>
<path style=" stroke:none;fill-rule:nonzero;fill:#ffffff;fill-opacity:1;" d="M 24.886719 27.449219 C 25.121094 27.804688 25.363281 28.105469 25.578125 28.339844 L 25.578125 26.054688 Z M 24.886719 27.449219 "/>
<path style=" stroke:none;fill-rule:nonzero;fill:#ffffff;fill-opacity:1;" d="M 23.882812 24.4375 C 23.890625 24.628906 23.90625 24.816406 23.929688 25 L 24.214844 24.425781 C 24.003906 24.4375 23.882812 24.4375 23.882812 24.4375 Z M 23.882812 24.4375 "/>
<path style=" stroke:none;fill-rule:nonzero;fill:#ffffff;fill-opacity:1;" d="M 32.234375 27.164062 L 26.984375 27.164062 L 26.984375 25.015625 L 33.835938 25.015625 Z M 32.234375 27.164062 "/>
<path style=" stroke:none;fill-rule:nonzero;fill:#ffffff;fill-opacity:1;" d="M 26.332031 22.40625 C 26.78125 22.429688 27.242188 22.445312 27.679688 22.460938 C 28.871094 22.496094 30.375 22.371094 30.375 22.371094 C 29.894531 23.265625 28.574219 24.011719 27.679688 24.28125 C 27.234375 24.414062 26.773438 24.511719 26.332031 24.589844 C 26.332031 25.726562 26.332031 26.863281 26.332031 28.003906 C 26.332031 28.34375 26.429688 28.582031 26.703125 28.808594 C 26.972656 29.03125 27.34375 29.253906 27.679688 29.359375 C 28.910156 29.753906 30.179688 29.996094 31.457031 30.183594 C 32.097656 30.28125 32.738281 30.359375 33.382812 30.4375 C 33.976562 30.507812 35.5 30.773438 35.5 30.773438 C 35.5 30.773438 35.476562 28.425781 35.515625 28.425781 L 28.445312 28.425781 L 28.445312 24.15625 L 35.515625 24.15625 L 35.515625 21.621094 L 26.332031 21.621094 Z M 26.332031 22.40625 "/>
<path style=" stroke:none;fill-rule:nonzero;fill:#ffffff;fill-opacity:1;" d="M 19.421875 30.570312 L 16.984375 25.628906 L 16.984375 30.570312 L 14.871094 30.570312 L 14.871094 21.621094 L 17.15625 21.621094 L 20.292969 27.933594 L 23.414062 21.621094 L 25.703125 21.621094 L 25.703125 30.570312 L 23.601562 30.570312 L 23.601562 25.628906 L 21.152344 30.570312 Z M 19.421875 30.570312 "/>
<path style=" stroke:none;fill-rule:nonzero;fill:#ffffff;fill-opacity:1;" d="M 25.933594 22.632812 L 25.933594 24.296875 C 26.546875 24.214844 27.015625 24.089844 27.679688 23.890625 C 28.574219 23.621094 29.398438 23.226562 29.859375 22.632812 C 29.859375 22.632812 28.871094 22.757812 27.679688 22.71875 C 27.039062 22.699219 26.570312 22.671875 25.933594 22.632812 Z M 25.933594 22.632812 "/>
<path style=" stroke:none;fill-rule:nonzero;fill:#ffffff;fill-opacity:1;" d="M 20.339844 24.867188 C 20.539062 24.542969 20.746094 24.28125 20.945312 24.074219 C 21.453125 23.535156 22.042969 23.351562 22.042969 23.359375 C 22.054688 23.433594 22.0625 23.507812 22.070312 23.585938 C 22.070312 23.648438 22.078125 23.710938 22.082031 23.773438 L 23.183594 21.386719 L 23.621094 21.386719 C 24.203125 20.0625 25.304688 18.644531 26.480469 18.128906 C 26.804688 17.988281 27.136719 17.875 27.519531 17.730469 C 27.398438 17.730469 27.335938 17.722656 27.273438 17.730469 C 25.726562 17.886719 24.183594 18.050781 22.636719 18.203125 C 22.375 18.226562 22.289062 18.390625 22.195312 18.613281 C 22.300781 18.632812 21.90625 19.757812 21.855469 20.023438 C 21.832031 20.148438 21.769531 20.277344 21.691406 20.378906 C 21.445312 20.703125 21.164062 20.988281 20.957031 21.339844 C 20.445312 22.203125 20.070312 23.058594 19.9375 24.054688 C 19.933594 24.078125 19.929688 24.097656 19.929688 24.117188 C 19.882812 24.5 19.863281 24.886719 19.863281 25.269531 C 19.863281 25.394531 19.878906 25.679688 19.886719 25.777344 C 19.886719 25.777344 20.179688 25.128906 20.339844 24.867188 Z M 20.339844 24.867188 "/>
<path style=" stroke:none;fill-rule:nonzero;fill:#ffffff;fill-opacity:1;" d="M 38.554688 33.035156 C 36.035156 31.609375 33.300781 30.921875 30.445312 30.667969 C 30.425781 30.667969 29.316406 30.542969 28.289062 30.214844 C 27.863281 30.078125 27.46875 29.90625 27.101562 29.648438 C 26.8125 29.445312 26.242188 28.972656 26.007812 28.707031 L 26.007812 30.570312 C 26.144531 30.6875 26.59375 31.035156 26.734375 31.148438 C 26.855469 31.242188 26.914062 31.335938 26.921875 31.460938 C 26.925781 31.5 26.925781 31.542969 26.917969 31.589844 C 26.675781 33.429688 26.625 35.277344 26.839844 37.125 C 26.992188 38.414062 27.261719 39.675781 27.800781 40.867188 C 27.839844 40.949219 27.886719 41.027344 27.953125 41.148438 C 28.066406 40.699219 28.152344 40.308594 28.261719 39.921875 C 28.753906 38.207031 29.539062 36.625 30.375 35.058594 C 30.601562 34.636719 30.914062 34.40625 31.378906 34.351562 C 32.40625 34.230469 33.425781 34.054688 34.457031 33.980469 C 36.539062 33.828125 38.601562 33.992188 40.613281 34.601562 C 40.691406 34.625 40.769531 34.644531 40.847656 34.667969 C 40.144531 34.019531 39.371094 33.496094 38.554688 33.03125 Z M 35.617188 32.980469 C 35.546875 32.980469 35.476562 32.984375 35.40625 32.980469 C 33.851562 32.90625 32.308594 33.023438 30.765625 33.25 C 30.121094 33.34375 29.671875 33.65625 29.359375 34.199219 C 29.175781 34.519531 29.03125 34.863281 28.871094 35.199219 C 28.835938 35.273438 28.8125 35.351562 28.746094 35.421875 C 28.738281 35.359375 28.726562 35.296875 28.726562 35.234375 C 28.707031 34.335938 28.6875 33.4375 28.878906 32.550781 C 28.929688 32.3125 29.035156 32.238281 29.273438 32.21875 C 31.394531 32.042969 33.46875 32.289062 35.507812 32.902344 C 35.546875 32.914062 35.585938 32.933594 35.625 32.949219 C 35.621094 32.960938 35.621094 32.972656 35.617188 32.984375 Z M 35.617188 32.980469 "/>
<path style=" stroke:none;fill-rule:nonzero;fill:#ffffff;fill-opacity:1;" d="M 23.46875 26.230469 L 23.21875 26.734375 C 23.21875 26.734375 23.21875 26.742188 23.222656 26.742188 C 23.222656 26.742188 23.222656 26.742188 23.222656 26.746094 C 23.292969 26.898438 23.375 27.046875 23.464844 27.183594 L 23.464844 26.230469 Z M 23.46875 26.230469 "/>
</g>
</svg>